<svg width="100" height="100" viewBox="0 0 100 100" fill="none" xmlns="http://www.w3.org/2000/svg">
<rect width="100" height="100" rx="50" fill="white"/>
<g clip-path="url(#clip0_11_25)">
<g filter="url(#filter0_d_11_25)">
<path d="M53.3703 45.4207L71.0752 27.7162L64.3583 21L50.0123 35.346L35.6663 21L28.9498 27.7162L46.6543 45.4207C47.5816 46.3478 48.797 46.8116 50.0123 46.8116C51.2276 46.8116 52.443 46.3482 53.3703 45.4207ZM79 64.334L64.654 49.9881L79 35.6417L72.2835 28.9255L54.5795 46.63C52.7252 48.4847 52.7252 51.4914 54.5795 53.3462L72.2835 71.0506L79 64.334ZM49.9877 64.654L64.3337 79L71.0498 72.2838L53.3457 54.5793C51.4906 52.7246 48.4844 52.7246 46.6293 54.5793L28.9253 72.2838L35.6417 79L49.9877 64.654ZM45.4205 53.3705C46.3114 52.4795 46.8115 51.2719 46.8115 50.0124C46.8115 48.7528 46.3114 47.5448 45.4205 46.6543L27.7165 28.9498L21 35.6664L35.346 50.0124L21 64.3587L27.7165 71.0749L45.4205 53.3705Z" fill="black"/>
</g>
</g>
<defs>
<filter id="filter0_d_11_25" x="18.018" y="18.018" width="63.964" height="63.964" filterUnits="userSpaceOnUse" color-interpolation-filters="sRGB">
<feFlood flood-opacity="0" result="BackgroundImageFix"/>
<feColorMatrix in="SourceAlpha" type="matrix" values="0 0 0 0 0 0 0 0 0 0 0 0 0 0 0 0 0 0 127 0" result="hardAlpha"/>
<feOffset/>
<feGaussianBlur stdDeviation="1.491"/>
<feColorMatrix type="matrix" values="0 0 0 0 0 0 0 0 0 0 0 0 0 0 0 0 0 0 0.13 0"/>
<feBlend mode="normal" in2="BackgroundImageFix" result="effect1_dropShadow_11_25"/>
<feBlend mode="normal" in="SourceGraphic" in2="effect1_dropShadow_11_25" result="shape"/>
</filter>
<clipPath id="clip0_11_25">
<rect width="58" height="58" fill="white" transform="translate(21 21)"/>
</clipPath>
</defs>
</svg>
