<?xml version="1.0" encoding="UTF-8" standalone="no"?>
<!-- Created with Inkscape (http://www.inkscape.org/) -->

<svg
   version="1.1"
   id="svg2"
   xml:space="preserve"
   width="533.33331"
   height="533.33331"
   viewBox="0 0 533.33331 533.33331"
   sodipodi:docname="the-vector-converter-1254-QzATUpsOWxzzfYMR.ps"
   xmlns:inkscape="http://www.inkscape.org/namespaces/inkscape"
   xmlns:sodipodi="http://sodipodi.sourceforge.net/DTD/sodipodi-0.dtd"
   xmlns="http://www.w3.org/2000/svg"
   xmlns:svg="http://www.w3.org/2000/svg"><defs
     id="defs6" /><sodipodi:namedview
     id="namedview4"
     pagecolor="#ffffff"
     bordercolor="#666666"
     borderopacity="1.0"
     inkscape:pageshadow="2"
     inkscape:pageopacity="0.0"
     inkscape:pagecheckerboard="0" /><g
     id="g8"
     inkscape:groupmode="layer"
     inkscape:label="ink_ext_XXXXXX"
     transform="matrix(1.3333333,0,0,-1.3333333,0,533.33333)"><g
       id="g10"
       transform="scale(0.1)"><path
         d="M 3970,2000 C 3970,912 3088,30 2000,30 912,30 30,912 30,2000 c 0,1088 882,1970 1970,1970 1088,0 1970,-882 1970,-1970"
         style="fill:#272828;fill-opacity:1;fill-rule:nonzero;stroke:none"
         id="path12" /><path
         d="m 829.453,2181.17 c -21.808,50.5 -72.5,87.29 -127.269,92.37 -23.672,2.2 -48.969,-1.65 -67.621,-16.37 -18.661,-14.73 -28.372,-42.09 -17.95,-63.45 10.891,-22.31 37.801,-30.75 61.84,-36.93 76.031,-19.5 156.57,-32.5 229.828,-60.9 59.883,-23.22 112.999,-56.22 143.629,-114.25 64.41,-122.05 16.81,-267.5 -86.629,-351.09 -63.718,-51.5 -144.59,-79.44 -226.226,-86.52 -86.973,-7.55 -176.692,8.26 -253.16,50.38 -88.782,48.89 -157.411,133.17 -187.321,230 83.93,16.09 167.86,32.17 251.797,48.26 12.063,-44.82 44.902,-83.58 87.133,-102.84 42.23,-19.26 93.039,-18.63 134.777,1.65 16.813,8.17 33.633,21.83 34.953,40.47 1.879,26.56 -27.203,43.71 -52.492,52.02 -94.75,31.15 -200.609,33.27 -285.078,86.3 -80.351,50.43 -130.109,145.42 -127.48,240.24 2.359,84.73 45.859,166.63 112.769,218.19 74.02,57.05 180.469,73.85 272.488,66.28 26.774,-2.21 53.34,-6.85 79.211,-14.08 107.969,-30.16 203.878,-108.13 245.878,-212.06 -74.346,-22.57 -148.706,-45.14 -223.077,-67.67"
         style="fill:#ddfd7e;fill-opacity:1;fill-rule:nonzero;stroke:none"
         id="path14" /><path
         d="m 618.98,2384.2 h 138.641 v 200.563 H 618.98 Z"
         style="fill:#ddfd7e;fill-opacity:1;fill-rule:nonzero;stroke:none"
         id="path16" /><path
         d="m 618.98,1437.47 h 138.641 v 205.02 H 618.98 Z"
         style="fill:#ddfd7e;fill-opacity:1;fill-rule:nonzero;stroke:none"
         id="path18" /><path
         d="m 1228.28,1539.98 h 2458.74 v 920.051 H 1228.28 Z"
         style="fill:#ddfd7e;fill-opacity:1;fill-rule:nonzero;stroke:none"
         id="path20" /></g></g></svg>
