<svg width="406" height="406" viewBox="0 0 406 406" fill="none" xmlns="http://www.w3.org/2000/svg">
<circle cx="203" cy="203" r="203" fill="#191919"/>
<path d="M372.782 141.379C372.782 141.379 369.038 156.79 342.819 156.79C334.022 156.79 331.022 159.406 329.027 161.785C327.588 163.494 326.656 165.088 324.473 165.505C320.99 164.834 320.704 161.196 316.461 158.842C314.327 157.656 311.188 156.79 306.127 156.79C279.908 156.79 274.488 141.379 274.488 141.379C268.585 163.845 287.266 180.057 298.966 188.241C304.844 192.353 307.018 200.038 304.157 206.62C290.528 237.973 274.897 247.751 253.665 247.751C249.814 247.751 245.833 247.448 241.696 246.933C240.568 246.794 239.431 246.631 238.279 246.459C237.51 246.344 236.742 246.222 235.965 246.091C235.188 245.96 234.412 245.829 233.619 245.69C226.539 244.423 219.058 242.698 211.136 240.851C210.359 240.671 209.574 240.483 208.789 240.303C197.123 237.572 184.516 234.653 170.871 232.585C169.522 232.381 168.19 232.193 166.882 232.013C166.555 231.964 166.228 231.923 165.901 231.882C165.255 231.8 164.609 231.718 163.963 231.645C163.644 231.604 163.325 231.571 163.007 231.53C162.369 231.457 161.739 231.391 161.11 231.318C159.859 231.187 158.624 231.064 157.406 230.958C151.945 230.484 146.86 230.263 142.134 230.263C132.953 230.263 125.121 231.089 118.483 232.405C117.78 232.544 117.101 232.683 116.431 232.83C115.76 232.977 115.098 233.133 114.452 233.296C113.479 233.533 112.539 233.779 111.623 234.04C111.018 234.212 110.413 234.384 109.833 234.564C109.244 234.743 108.672 234.923 108.116 235.111C107.552 235.299 107.004 235.487 106.465 235.675C106.195 235.774 105.933 235.863 105.672 235.97C105.148 236.166 104.633 236.362 104.135 236.558C103.881 236.656 103.636 236.755 103.391 236.861C102.9 237.065 102.418 237.27 101.952 237.474C101.723 237.58 101.486 237.687 101.257 237.785C100.799 237.997 100.357 238.202 99.9242 238.406C96.237 240.188 93.3347 242.052 91.0946 243.753C90.833 243.949 90.5795 244.145 90.3343 244.341C89.9255 244.668 89.5331 244.996 89.1733 245.306C89.1079 245.372 89.0425 245.421 88.9771 245.478C88.969 245.486 88.9526 245.494 88.9444 245.502C88.9199 245.519 88.9035 245.543 88.879 245.56C88.83 245.601 88.7891 245.641 88.74 245.682C88.6092 245.805 88.4702 245.919 88.3476 246.034C86.361 247.832 84.9711 249.386 83.8674 251.323C82.1996 254.242 81.6519 256.261 81.6519 256.261C88.1759 271.141 97.496 284.827 109.318 296.657C109.383 296.722 109.457 296.787 109.522 296.853C109.522 296.853 109.53 296.861 109.539 296.869C109.604 296.943 109.669 297.008 109.735 297.074C133.673 321.028 165.181 334.665 198.856 335.777C201.301 341.197 206.231 348.579 214.758 347.639C214.758 347.639 220.186 362.723 234.894 359.371C234.894 359.371 236.178 373.719 268.495 373.515C268.495 373.515 247.934 362.609 247.828 343.772C247.795 338.417 246.879 333.569 244.999 329.187C264.056 322.884 281.535 312.231 296.219 297.728C296.439 297.507 296.66 297.294 296.881 297.074C305.351 288.604 312.529 279.177 318.325 269.048C328.471 251.307 334.357 231.383 335.453 210.577C335.469 210.29 335.486 210.004 335.494 209.718C335.788 207.527 336.017 205.54 336.205 203.791C336.679 199.294 339.197 195.296 342.983 192.827C356.521 183.998 380.574 162.21 372.758 141.387H372.766L372.782 141.379Z" fill="white"/>
<path d="M81.8162 203.427C81.8162 170.946 94.4556 140.418 117.404 117.445C123.928 110.913 131.074 105.215 138.693 100.407C163.596 84.694 196.609 101.527 197.467 130.959C197.484 131.523 197.492 132.096 197.492 132.676V224.357L209.125 226.499V132.676C209.125 132.088 209.134 131.507 209.15 130.927C210.033 101.503 243.013 84.6777 267.924 100.375C275.56 105.19 282.713 110.897 289.254 117.437C297.372 125.563 304.199 134.638 309.635 144.408C314.5 144.751 318.596 145.839 322.095 147.686C322.757 148.038 323.37 148.406 323.943 148.782C317.451 134.442 308.352 121.247 296.898 109.785C283.645 96.524 268.071 86.419 251.099 79.8541C250.248 79.5271 249.398 79.2082 248.548 78.8976C246.291 78.08 244.01 77.3197 241.705 76.6248C237.29 75.2922 232.81 74.1966 228.256 73.33C221.92 72.1282 215.462 71.3842 208.921 71.1226C207.065 71.0409 205.201 71 203.329 71C201.457 71 199.568 71.0409 197.696 71.1226C191.18 71.3924 184.754 72.1282 178.451 73.3218C173.889 74.1803 169.392 75.284 164.978 76.6166C162.656 77.3115 160.358 78.0718 158.086 78.9057C157.235 79.2164 156.377 79.5353 155.535 79.8623C138.571 86.4272 123.005 96.524 109.752 109.785C84.7676 134.802 71 168.06 71 203.427C71 216.197 72.7904 228.681 76.265 240.618C77.3279 239.359 78.8076 237.789 80.7698 236.072C82.1923 234.829 83.6966 233.644 85.299 232.516C83.0017 223.106 81.8162 213.36 81.8162 203.435V203.427Z" fill="#3CCD64"/>
</svg>
