<svg width="43" height="43" viewBox="0 0 43 43" fill="none" xmlns="http://www.w3.org/2000/svg">
<circle cx="21.5" cy="21.5" r="21.5" fill="url(#paint0_linear_619_5099)"/>
<path d="M31.7817 14.8259L32 14.7165L31.8544 14.5341C30.172 12.1765 27.64 10.5676 24.7947 10.0482V6H20.4642V10.0118C17.8006 10.5264 15.3989 11.9546 13.6718 14.0511C11.9447 16.1475 11 18.7813 11 21.5C11 24.2187 11.9447 26.8525 13.6718 28.9489C15.3989 31.0454 17.8006 32.4736 20.4642 32.9882V37H24.7947V32.9518C25.6762 32.7829 26.5323 32.501 27.342 32.1129L27.5604 32.0035L27.4148 31.8212C26.6058 30.6793 26.025 29.3913 25.7045 28.0282L25.6317 27.8094L25.4133 27.9188C24.558 28.3178 23.6275 28.5292 22.684 28.5388C18.8267 28.5388 15.879 25.5118 15.879 21.4635C15.879 17.4153 18.8267 14.4612 22.7204 14.4612C23.7618 14.4464 24.7908 14.6881 25.7172 15.165C26.6436 15.6419 27.4389 16.3395 28.0334 17.1965L28.179 17.3788L28.3246 17.1965C29.3022 16.1767 30.4791 15.3697 31.7817 14.8259Z" fill="white"/>
<defs>
<linearGradient id="paint0_linear_619_5099" x1="4.71951" y1="8.39024" x2="35.1341" y2="38.8049" gradientUnits="userSpaceOnUse">
<stop stop-color="#D641FF"/>
<stop offset="1" stop-color="#2EA9FF"/>
</linearGradient>
</defs>
</svg>
