<?xml version="1.0" encoding="UTF-8" standalone="no"?>
<!-- Created with Inkscape (http://www.inkscape.org/) -->

<svg
   id="svg2"
   width="4852"
   height="4852.0825"
   version="1.1"
   viewBox="0 0 4852 4852.0825"
   xmlns="http://www.w3.org/2000/svg"
   xmlns:svg="http://www.w3.org/2000/svg">
  <defs
     id="defs8" />
  <g
     id="g8"
     transform="translate(-707,-609.5)">
    <circle
       id="path238"
       cx="3132"
       cy="3000"
       r="2199"
       style="fill:#ffffff" />
    <path
       id="path236"
       d="m 3059,5460 c -29,-0.88 -74,-3.2 -104,-5.5 -532,-39 -1000,-253 -1435,-607 -65,-58 -141,-134 -199,-199 -395,-444 -614,-1000 -614,-1613 0,-539 180,-1063 510,-1488 64,-83 123,-149 201,-227 54,-54 88,-86 140,-130 439,-375 998,-581 1575,-581 539,0 1063,180 1488,510 83,64 149,123 227,201 54,54 86,88 130,140 375,439 581,998 581,1575 0,539 -180,1063 -510,1488 -64,83 -123,149 -201,227 -54,54 -88,86 -140,130 -458,391 -1000,598 -1649,580 z m 174,-251 c 124,-5.8 229,-18 346,-40 45,-8.4 55,-11 99,-23 211,-59 416,-149 606,-264 50,-31 103,-66 134,-89 178,-134 340,-296 474,-474 23,-31 58,-83 89,-134 116,-190 205,-395 264,-606 12,-44 15,-54 23,-99 22,-118 34,-221 40,-349 1.6,-34 1.6,-161 0,-195 -6.1,-128 -18,-231 -40,-349 -8.4,-45 -11,-55 -23,-99 -59,-211 -149,-416 -264,-606 -31,-50 -66,-103 -89,-134 -134,-178 -296,-340 -474,-474 -31,-23 -83,-58 -134,-89 -190,-116 -395,-205 -606,-264 -44,-12 -54,-15 -99,-23 -118,-22 -221,-34 -349,-40 -34,-1.6 -161,-1.6 -195,0 -128,6.1 -231,18 -349,40 -45,8.4 -55,11 -99,23 -211,59 -416,149 -606,264 -50,31 -103,66 -134,89 -178,134 -340,296 -474,474 -23,31 -58,83 -89,134 -116,190 -205,395 -264,606 -12,44 -15,54 -23,99 -22,118 -34,221 -40,349 -1.6,34 -1.6,161 0,195 6.1,128 18,231 40,349 8.4,45 11,55 23,99 59,211 149,416 264,606 31,50 66,103 89,134 134,178 296,340 474,474 31,23 83,58 134,89 190,116 395,205 606,264 46,13 56,15 110,25 125,23 242,35 377,39 22,0.64 137,-0.36 159,-1.4 z m -268,-595 c -26,-0.92 -49,-2.4 -79,-5 -12,-1.1 -23,-1.9 -24,-1.9 -1.7,0 -1.8,-33 -1.8,-721 v -721 h -649 v -261 h 649 v -259 h -649 v -261 h 649 v -929 h 261 v 929 h 934 v 261 h -934 v 259 h 934 v 261 h -934 v 1215 h 4.8 c 5.7,0 52,-4.4 69,-6.5 112,-14 213,-39 316,-78 234,-88 439,-238 590,-433 122,-158 204,-334 246,-530 l 1.3,-6 121,-0.25 c 67,-0.14 121,0.13 121,0.61 0,1.7 -7.9,43 -11,59 -40,186 -116,367 -223,526 -56,84 -114,155 -185,227 -78,79 -156,144 -249,205 -91,61 -185,110 -288,152 -210,85 -439,125 -668,117 z"
       style="fill:#000000" />
  </g>
</svg>
