<svg viewBox="0 0 278 300" fill="none" xmlns="http://www.w3.org/2000/svg">
    <g clip-path="url(#clip0_5416_2)">
        <path d="M132.589 299.19C205.414 299.19 264.449 240.078 264.449 167.16C264.449 94.2417 205.414 35.1299 132.589 35.1299C59.7652 35.1299 0.729492 94.2417 0.729492 167.16C0.729492 240.078 59.7652 299.19 132.589 299.19Z" fill="#F2E373"/>
        <path fill-rule="evenodd" clip-rule="evenodd" d="M186.17 153.48L6 207.22C14.22 233.41 31 257.57 56.42 275.43C119.16 319.43 197.42 300.71 246.48 248.17C247.53 247.04 246.48 245.17 245.06 245.81C235.839 250.141 225.481 251.429 215.48 249.49C206.185 247.718 197.636 243.198 190.938 236.514C184.24 229.831 179.702 221.291 177.91 212C175.587 200.242 177.746 188.04 183.964 177.794C190.182 167.548 200.008 159.998 211.51 156.63L186.17 153.48Z" fill="url(#paint0_linear_5416_2)"/>
        <path fill-rule="evenodd" clip-rule="evenodd" d="M165.36 143C168.918 141.539 172.369 139.831 175.69 137.89C191.899 128.591 210.808 125.134 229.259 128.097C247.711 131.06 264.587 140.263 277.07 154.17C277.265 154.402 277.382 154.689 277.406 154.991C277.429 155.293 277.358 155.594 277.201 155.854C277.045 156.113 276.811 156.316 276.532 156.436C276.254 156.555 275.945 156.585 275.65 156.52C253.19 151.79 228.98 150.86 210.54 156.89C188.31 164.18 172 180 160.71 199.63C144.17 228.41 137.36 236.55 110.64 246.97C64.0796 265.15 20.6396 248.68 6.00963 207.29C-3.29182 177.468 -1.80916 145.325 10.1981 116.486C22.2054 87.6467 43.9724 63.949 71.6896 49.54C87.8196 41 107.38 33.8 123.76 29.06C139.55 24.55 166.42 18 173.35 0.99997C173.486 0.683305 173.723 0.420395 174.024 0.251843C174.325 0.0832901 174.673 0.0184721 175.014 0.0673989C175.355 0.116326 175.671 0.276276 175.913 0.522546C176.154 0.768817 176.308 1.08771 176.35 1.42997C179.12 21.52 174.52 30.67 162.99 41.52C150.49 53.29 135.06 58.65 121.22 67.15C100.11 81.15 93.4196 106.72 107.42 127.83C115.74 140.38 129.91 147.04 144.8 147.04C149.367 147.027 153.917 146.463 158.35 145.36C160.739 144.739 163.081 143.95 165.36 143Z" fill="url(#paint1_linear_5416_2)"/>
    </g>
    <defs>
        <linearGradient id="paint0_linear_5416_2" x1="107.88" y1="180.59" x2="159.63" y2="302.5" gradientUnits="userSpaceOnUse">
            <stop stop-color="#F7D45C"/>
            <stop offset="1" stop-color="#DE3633"/>
        </linearGradient>
        <linearGradient id="paint1_linear_5416_2" x1="46.5996" y1="58.2" x2="167.36" y2="193.9" gradientUnits="userSpaceOnUse">
            <stop stop-color="#F7D45C"/>
            <stop offset="1" stop-color="#DE3633"/>
        </linearGradient>
    </defs>
</svg>