<svg width="48" height="48" fill="none" version="1.1" viewBox="0 0 48 48" xmlns="http://www.w3.org/2000/svg">
	<path d="m24 46.5c12.426 0 22.5-10.074 22.5-22.5s-10.074-22.5-22.5-22.5-22.5 10.074-22.5 22.5 10.074 22.5 22.5 22.5zm0 1.5c13.255 0 24-10.745 24-24s-10.745-24-24-24-24 10.745-24 24 10.745 24 24 24z" clip-rule="evenodd" fill="url(#paint0_linear_241_9428)" fill-rule="evenodd"/>
	<g fill="url(#paint1_linear_241_9428)">
		<path d="m32.72 14.779-7.3255 7.326c-0.3836 0.384-0.8864 0.576-1.3893 0.576s-1.0058-0.192-1.39-0.576l-7.3261-7.326 2.7799-2.7792 5.9362 5.9364 5.9361-5.9364 2.7787 2.7792z"/>
		<path d="m30.064 23.995 5.9362 5.9358-2.7793 2.7798-7.3255-7.326c-0.1824-0.1819-0.3271-0.3984-0.4259-0.6369s-0.1497-0.4943-0.1497-0.7527 0.0509-0.5142 0.1497-0.7527 0.2435-0.455 0.4259-0.6369l7.3255-7.326 2.7787 2.7792-5.9356 5.9364z"/>
		<path d="m29.931 36-5.9356-5.9364-5.9367 5.9364-2.7787-2.7792 7.3255-7.326c0.3696-0.3687 0.8691-0.5756 1.3896-0.5756 0.5206 0 1.0201 0.2069 1.3897 0.5756l7.3261 7.326-2.7799 2.7792z"/>
		<path d="m22.53 24.757c-0.0986 0.2384-0.243 0.4549-0.425 0.637l-7.3261 7.326-2.7787-2.7792 5.9362-5.9364-5.9368-5.9358 2.7799-2.7792 7.3255 7.326c0.182 0.1821 0.3264 0.3986 0.425 0.637 0.0985 0.2384 0.1493 0.4941 0.1493 0.7523s-0.0508 0.5139-0.1493 0.7523z"/>
	</g>
	<defs>
		<linearGradient id="paint0_linear_241_9428" x2="50.005" y2="3.355" gradientUnits="userSpaceOnUse">
			<stop stop-color="#0BF6CC" offset="0"/>
			<stop stop-color="#073DC8" offset="1"/>
		</linearGradient>
		<linearGradient id="paint1_linear_241_9428" x1="12" x2="37.003" y1="12" y2="13.678" gradientUnits="userSpaceOnUse">
			<stop stop-color="#0BF6CC" offset="0"/>
			<stop stop-color="#073DC8" offset="1"/>
		</linearGradient>
	</defs>
</svg>
