<svg width="48" height="48" viewBox="0 0 48 48" fill="none" xmlns="http://www.w3.org/2000/svg">
<path fill-rule="evenodd" clip-rule="evenodd" d="M24 46.5C36.4264 46.5 46.5 36.4264 46.5 24C46.5 11.5736 36.4264 1.5 24 1.5C11.5736 1.5 1.5 11.5736 1.5 24C1.5 36.4264 11.5736 46.5 24 46.5ZM24 48C37.2548 48 48 37.2548 48 24C48 10.7452 37.2548 0 24 0C10.7452 0 0 10.7452 0 24C0 37.2548 10.7452 48 24 48Z" fill="url(#paint0_linear_332_9371)"/>
<g clip-path="url(#clip0_332_9371)">
<path d="M33.9884 28.1767L33.9295 28.2398C33.5677 28.6057 33.1302 28.896 32.6506 29.0853H32.6254C32.1837 29.2578 31.7125 29.3461 31.2414 29.3461C30.5473 29.3587 29.8616 29.2115 29.2348 28.9128H29.1969L29.1044 28.8666L29.0791 28.8539C28.4986 28.5426 28.0232 28.0673 27.7077 27.4868L27.6488 27.3816L26.3658 28.7572C26.3658 28.7572 26.1092 30.0739 25.9956 30.7175V30.7596L26.0251 30.789L26.0419 30.8101C27.346 32.2403 29.1927 33.0522 31.1278 33.0522L31.233 33.0565L31.3171 33.0607C32.5833 33.0607 33.8285 32.7367 34.9349 32.1226L34.9685 32.1057C35.5785 31.7608 36.138 31.3317 36.626 30.8311L36.6849 30.768L33.9884 28.1767Z" fill="url(#paint1_linear_332_9371)"/>
<path d="M15.883 21.8076V21.8328L16.4046 23.789L16.5098 23.6207C17.0735 22.8046 17.9317 22.2367 18.9034 22.0474H18.9455C19.2862 21.9759 19.6354 21.9506 19.9845 21.9675C20.5104 22.0011 21.0194 22.1526 21.4821 22.405L21.52 22.426C22.1552 22.7836 22.7189 23.2589 23.1774 23.8268L23.2532 23.9236L24.4815 22.1946L24.8727 20.3689L24.8307 20.3353L24.6919 20.2133C23.8884 19.4729 22.9377 18.9176 21.8986 18.5768C21.3391 18.4086 20.7586 18.316 20.1781 18.3076H20.1528C18.8361 18.3118 17.5447 18.6442 16.3878 19.271L16.3499 19.292L15.8325 21.6099L15.883 21.8076Z" fill="url(#paint2_linear_332_9371)"/>
<path d="M27.3797 26.7926V26.759C27.3882 26.6159 27.3545 26.0522 27.3461 25.7241L27.3545 25.6358C27.3377 24.765 27.6195 23.9152 28.1622 23.2337L28.179 23.2085C28.259 23.1075 28.3389 23.015 28.4272 22.9224C29.1339 22.1947 30.1015 21.7824 31.1153 21.7824C31.2752 21.7824 31.4392 21.7908 31.5991 21.8077H31.6243C32.4573 21.917 33.2313 22.2956 33.8328 22.8804L33.8959 22.9435L36.4915 20.3269L36.4284 20.2638C35.1159 18.9892 33.3911 18.232 31.5654 18.1184H31.5402L31.048 18.0931C29.9501 18.0847 28.8647 18.2951 27.8509 18.7115C27.182 18.9976 26.5636 19.3972 26.0336 19.8936L26.0042 19.9188H25.9705V19.9357L25.9495 19.9525L25.92 19.9777C25.7349 20.1586 25.5624 20.3521 25.4068 20.5583V20.5751L24.9861 22.405L23.6021 24.3149V25.6484C23.5895 27.1249 22.7397 28.4627 21.4062 29.0979L21.381 29.1105C20.893 29.3293 20.3672 29.4428 19.8329 29.4471C17.7295 29.4639 16.0006 27.798 15.9417 25.6947L15.9249 24.4495L15.9291 24.3696L15.2476 21.6983L15.8239 19.2205L15.7608 15.3293L12 14L12.143 22.6069V22.6448L12.1935 25.7073C12.1935 25.8125 12.1977 25.9176 12.2061 26.0228C12.2019 26.0396 12.2019 26.0607 12.2019 26.0775C12.3492 28.1808 13.3798 30.1243 15.0372 31.4284L15.0625 31.4495C16.4297 32.5348 18.1292 33.1195 19.875 33.1111L20.1484 33.1069L20.2073 33.1111C21.9573 33.1069 23.64 32.4507 24.9314 31.2686L24.9525 31.2475C25.1292 31.0793 25.2974 30.8984 25.4615 30.7091L25.4741 30.6922L25.878 28.5426L27.3629 26.8389L27.3797 26.7926Z" fill="url(#paint3_linear_332_9371)"/>
</g>
<defs>
<linearGradient id="paint0_linear_332_9371" x1="0" y1="0" x2="50.0052" y2="3.355" gradientUnits="userSpaceOnUse">
<stop stop-color="#0BF6CC"/>
<stop offset="1" stop-color="#073DC8"/>
</linearGradient>
<linearGradient id="paint1_linear_332_9371" x1="31.3402" y1="27.3816" x2="31.3402" y2="33.0607" gradientUnits="userSpaceOnUse">
<stop stop-color="#0BF6CC"/>
<stop offset="1" stop-color="#073DC8"/>
</linearGradient>
<linearGradient id="paint2_linear_332_9371" x1="20.3526" y1="18.3076" x2="20.3526" y2="23.9236" gradientUnits="userSpaceOnUse">
<stop stop-color="#0BF6CC"/>
<stop offset="1" stop-color="#073DC8"/>
</linearGradient>
<linearGradient id="paint3_linear_332_9371" x1="24.2457" y1="14" x2="24.2457" y2="33.1112" gradientUnits="userSpaceOnUse">
<stop stop-color="#0BF6CC"/>
<stop offset="1" stop-color="#073DC8"/>
</linearGradient>
<clipPath id="clip0_332_9371">
<rect width="24.685" height="19.1112" fill="white" transform="translate(12 14)"/>
</clipPath>
</defs>
</svg>
