<svg width="48" height="48" viewBox="0 0 48 48" fill="none" xmlns="http://www.w3.org/2000/svg">
<path fill-rule="evenodd" clip-rule="evenodd" d="M24 46.5C36.4264 46.5 46.5 36.4264 46.5 24C46.5 11.5736 36.4264 1.5 24 1.5C11.5736 1.5 1.5 11.5736 1.5 24C1.5 36.4264 11.5736 46.5 24 46.5ZM24 48C37.2548 48 48 37.2548 48 24C48 10.7452 37.2548 0 24 0C10.7452 0 0 10.7452 0 24C0 37.2548 10.7452 48 24 48Z" fill="url(#paint0_linear_505_9686)"/>
<path opacity="0.996" fill-rule="evenodd" clip-rule="evenodd" d="M23.9148 12C23.693 12.003 23.4716 12.0122 23.2532 12.0272H23.1632C23.0056 12.0373 22.8501 12.0532 22.6943 12.0733C22.2154 12.1194 21.7424 12.1972 21.2748 12.3077C21.1812 12.3277 21.0874 12.3483 20.9943 12.3705C20.7111 12.4451 20.4301 12.5297 20.1527 12.6239C19.732 12.765 19.3229 12.9317 18.9238 13.1221C18.8264 13.1603 18.7328 13.2038 18.6433 13.2561C18.3728 13.3853 18.1101 13.5302 17.8561 13.6874C18.1231 13.7368 18.3858 13.8042 18.6433 13.8904C18.7378 13.9271 18.8314 13.966 18.9238 14.0077C19.3853 14.2101 19.7944 14.4867 20.1527 14.8388C20.4926 15.1779 20.7736 15.5617 20.9943 15.9881C21.1057 16.229 21.1994 16.4758 21.2748 16.7292C21.3107 16.8726 21.3404 17.0166 21.3649 17.1626C21.797 16.998 22.2402 16.8723 22.6942 16.7836C22.8512 16.7587 23.0066 16.7336 23.1632 16.7104C23.1943 16.7126 23.224 16.7102 23.2532 16.702C23.4728 16.6837 23.6944 16.6722 23.9147 16.6664C24.3243 16.6678 24.731 16.6999 25.1352 16.7648C25.2624 16.7854 25.3882 16.8105 25.5141 16.8381C25.768 16.8948 26.0192 16.9634 26.2657 17.0453C26.7586 17.2104 27.2292 17.4251 27.6767 17.688C27.8365 17.783 27.9919 17.8813 28.1457 17.9853C28.1723 18.0107 28.202 18.0335 28.2357 18.0502C28.4634 18.2175 28.6848 18.3936 28.8972 18.582C29.3606 19.003 29.7673 19.4713 30.1177 19.9846C30.2489 20.1926 30.3747 20.4029 30.4966 20.6168C30.822 21.2374 31.0561 21.8909 31.198 22.5784C31.5105 24.2567 31.2763 25.8561 30.4966 27.3725C30.3793 27.5892 30.2535 27.7994 30.1177 28.0047C29.7707 28.5178 29.3639 28.9817 28.8972 29.3969C28.6854 29.5797 28.4639 29.7511 28.2357 29.9119C28.2056 29.933 28.1758 29.9537 28.1457 29.9748V29.9768C27.9979 30.0749 27.8167 30.1909 27.6767 30.2741C27.2261 30.5235 26.7554 30.7291 26.2657 30.8896C26.0189 30.9686 25.7678 31.0349 25.5141 31.0885C25.3875 31.1138 25.2617 31.1368 25.1352 31.1597C24.7305 31.2183 24.3238 31.2481 23.9147 31.2497C23.6942 31.2454 23.4727 31.2339 23.2532 31.2141C23.2233 31.2091 23.1935 31.2068 23.1632 31.2057C23.0052 31.1875 22.8497 31.1624 22.6942 31.1325C22.2066 31.0463 21.7336 30.9114 21.2748 30.7263C21.1803 30.6896 21.0867 30.6508 20.9943 30.6091C20.7068 30.4729 20.4258 30.3245 20.1527 30.1653C19.7137 29.8852 19.3046 29.5653 18.9238 29.2064C18.8273 29.116 18.7337 29.0224 18.6432 28.9259C18.288 28.5436 17.9749 28.1321 17.7032 27.6887C17.6075 27.5182 17.5138 27.3468 17.4227 27.1737C16.6218 25.522 16.462 23.8083 16.9433 22.0362C16.7249 22.0115 16.5079 21.9794 16.2922 21.9378C16.199 21.9128 16.1053 21.8854 16.0117 21.8562C15.681 21.7591 15.3679 21.6242 15.0717 21.45C14.6425 21.1838 14.2655 20.8548 13.9412 20.464C13.8801 20.3749 13.8162 20.2859 13.7507 20.2002C13.4796 19.7937 13.2796 19.3547 13.1499 18.8814C12.9863 19.2229 12.8435 19.5725 12.7207 19.9301C12.6064 20.228 12.5082 20.532 12.4297 20.8429C12.2137 21.6266 12.08 22.4263 12.0278 23.24C11.9365 24.5755 12.0702 25.8872 12.4297 27.1737C12.5096 27.4813 12.6077 27.7807 12.7207 28.076C12.9898 28.8221 13.3327 29.5306 13.7507 30.2009C13.8107 30.3029 13.8746 30.4034 13.9412 30.5002C14.2733 31.0193 14.6503 31.5037 15.0716 31.9552C15.3637 32.2895 15.6769 32.6047 16.0117 32.8973C16.1001 32.9821 16.1937 33.0599 16.2922 33.1318C16.6508 33.4362 17.0279 33.7172 17.4226 33.9733C17.5139 34.0345 17.6075 34.0916 17.7032 34.145C18.0049 34.3381 18.3179 34.5119 18.6432 34.6684C18.735 34.7158 18.8286 34.7614 18.9237 34.8044C19.3236 34.9922 19.7326 35.1545 20.1526 35.2922C20.4289 35.3874 20.7099 35.4719 20.9942 35.5455C21.0873 35.5681 21.181 35.5886 21.2747 35.6084C21.7419 35.7209 22.215 35.8007 22.6942 35.8449C22.8491 35.8659 23.0045 35.8797 23.1631 35.8889C23.1942 35.8866 23.2239 35.8911 23.2531 35.8994C23.4731 35.9068 23.6946 35.9115 23.9147 35.9161C24.3241 35.9174 24.7308 35.8968 25.1352 35.8533C25.2621 35.8445 25.3879 35.8331 25.5141 35.8177C25.7656 35.7824 26.0169 35.739 26.2656 35.69C26.7432 35.5978 27.2139 35.4766 27.6767 35.3278C27.8137 35.2822 27.9962 35.2197 28.1456 35.1666C28.1484 35.1653 28.1511 35.1637 28.154 35.1624C28.1731 35.1556 28.1971 35.1478 28.2147 35.1415C28.2149 35.1401 28.2144 35.1387 28.2147 35.1373C28.2217 35.1348 28.2285 35.1313 28.2356 35.1289C28.46 35.0441 28.6815 34.9526 28.8972 34.8505C28.971 34.8233 29.042 34.7903 29.1128 34.7542C29.0644 33.3685 29.0116 31.9815 28.9516 30.5945C28.9466 30.4929 28.9684 30.3981 29.0186 30.3098C29.1741 30.0882 29.3809 30.0207 29.6382 30.1067C29.7403 30.1553 29.9363 30.2372 30.1177 30.314V30.3202C30.2414 30.3821 30.3672 30.4393 30.4966 30.4919C30.7777 30.6248 31.0611 30.753 31.3465 30.8792C31.7824 31.0776 32.2189 31.2741 32.6571 31.4675C32.6873 31.4876 32.7214 31.5036 32.7576 31.5135C32.8795 31.5729 33.0029 31.6301 33.1281 31.6852C33.4012 31.3788 33.6548 31.0567 33.8881 30.718C34.3317 30.0872 34.7087 29.4133 35.0185 28.6998C35.052 28.6328 35.0818 28.5641 35.1085 28.4926C35.5411 27.4646 35.8165 26.3953 35.9355 25.2833C36.1384 23.2755 35.863 21.3379 35.1085 19.4697C35.0853 19.3967 35.0555 19.326 35.0185 19.2603C34.7136 18.5326 34.3366 17.8493 33.8881 17.2087C33.6523 16.8638 33.3987 16.5324 33.1281 16.2142C33.0108 16.0731 32.8874 15.9361 32.7576 15.806C32.731 15.7643 32.6969 15.7299 32.6571 15.6992C32.25 15.2678 31.8135 14.8726 31.3465 14.5143C31.0727 14.3021 30.7894 14.1033 30.4966 13.9177C30.3731 13.8348 30.2473 13.755 30.1177 13.6811C29.7259 13.4445 29.3191 13.2343 28.8972 13.0489C28.6802 12.951 28.4588 12.8597 28.2356 12.7768C28.2062 12.7629 28.1764 12.7515 28.1456 12.7412C27.9895 12.6851 27.8341 12.6303 27.6767 12.5779C27.2129 12.4318 26.7423 12.3128 26.2656 12.2178C26.0163 12.1737 25.765 12.1348 25.5141 12.1005C25.387 12.0868 25.2612 12.0708 25.1352 12.0545C24.729 12.0211 24.3223 12.0028 23.9147 12.0001L23.9148 12ZM17.1109 15.3621C17.0588 15.3614 17.0052 15.3622 16.9518 15.3642C16.7687 15.3802 16.5882 15.4134 16.4096 15.4668C15.5481 15.7617 15.0077 16.3522 14.7872 17.2358C14.6185 18.1645 14.8824 18.9425 15.5785 19.5721C16.1916 20.0631 16.884 20.2298 17.6574 20.0703C18.4717 19.8584 19.0371 19.3616 19.3532 18.5818C19.6267 17.7689 19.5171 17.0125 19.0266 16.3124C18.5305 15.6894 17.8929 15.3731 17.111 15.362L17.1109 15.3621ZM29.8748 30.9272C29.5414 31.0013 29.4495 31.2804 29.4393 31.6222C29.551 33.7203 29.5074 35.6272 29.6277 37.7247C31.678 36.3326 33.8794 34.9423 35.9312 33.5524C34.0508 32.6574 32.0991 31.8812 30.2181 30.9858C30.1085 30.9379 29.9943 30.9185 29.8748 30.9272L29.8748 30.9272Z" fill="url(#paint1_linear_505_9686)"/>
<defs>
<linearGradient id="paint0_linear_505_9686" x1="0" y1="0" x2="50.0052" y2="3.355" gradientUnits="userSpaceOnUse">
<stop stop-color="#0BF6CC"/>
<stop offset="1" stop-color="#073DC8"/>
</linearGradient>
<linearGradient id="paint1_linear_505_9686" x1="12" y1="12" x2="36" y2="38" gradientUnits="userSpaceOnUse">
<stop stop-color="#0BF6CC"/>
<stop offset="1" stop-color="#073DC8"/>
</linearGradient>
</defs>
</svg>
