<svg width="14" height="14" viewBox="0 0 14 14" fill="none" xmlns="http://www.w3.org/2000/svg">
<g clip-path="url(#clip0_653_9269)">
<path d="M1.4707 11.287C1.37286 11.1892 1.28175 11.0866 1.1974 10.9796L0.120135 12.0569C-0.0400449 12.2171 -0.0400449 12.4768 0.120135 12.6369L1.36307 13.8799C1.52325 14.0401 1.78294 14.0401 1.94312 13.8799L3.01999 12.803C2.79758 12.6464 1.68972 11.4953 1.4707 11.287Z" fill="#8B8E9C"/>
<path d="M4.45312 5.8193L5.69576 7.06188L6.35912 6.39871C6.70032 6.05743 6.70412 5.50115 6.35909 5.15602C6.01675 4.81365 5.45888 4.81302 5.11561 5.15635L4.45312 5.8193Z" fill="#8B8E9C"/>
<path d="M8.8439 7.64088C8.50156 7.29851 7.94369 7.29788 7.60042 7.64121L6.93799 8.30408L8.18063 9.54666L8.84393 8.88358C9.18512 8.54227 9.18893 7.98602 8.8439 7.64088Z" fill="#8B8E9C"/>
<path d="M3.56245 6.08864C3.40235 5.92857 3.14283 5.92843 2.98265 6.08839L2.05121 7.02041C1.03047 8.03992 1.03176 9.68907 2.05116 10.7072L3.29229 11.9499C4.30959 12.9659 5.964 12.9649 6.98077 11.9493C6.98077 11.9493 7.91139 11.0181 7.9115 11.018C8.07176 10.858 8.07201 10.598 7.91175 10.4377L3.56245 6.08864Z" fill="#8B8E9C"/>
<path d="M13.8798 1.36307L12.6369 0.120135C12.4767 -0.0400449 12.217 -0.0400449 12.0569 0.120135L10.98 1.19701C11.087 1.28118 11.1897 1.37204 11.2875 1.46969C11.5008 1.69426 12.6401 2.79348 12.8026 3.02038L13.8799 1.94312C14.04 1.78294 14.04 1.52325 13.8798 1.36307Z" fill="#8B8E9C"/>
<path d="M11.9489 6.9795C12.9698 5.95988 12.9682 4.31075 11.9489 3.29266L10.7078 2.05005C9.69102 1.03451 8.03664 1.03448 7.01935 2.0506C7.01935 2.0506 6.08873 2.98179 6.08859 2.9819C5.92833 3.14192 5.92806 3.40193 6.08835 3.56222L10.4376 7.9113C10.5977 8.07137 10.8572 8.07148 11.0174 7.91154L11.9489 6.9795Z" fill="#8B8E9C"/>
</g>
<defs>
<clipPath id="clip0_653_9269">
<rect width="14" height="14" fill="white"/>
</clipPath>
</defs>
</svg>
