<svg width="14" height="14" viewBox="0 0 14 14" fill="none" xmlns="http://www.w3.org/2000/svg">
<path d="M2.8661 4.3346C5.14919 2.05513 8.8508 2.05513 11.1339 4.3346L11.4087 4.60893C11.5228 4.72291 11.5228 4.90769 11.4087 5.02168L10.4687 5.96012C10.4117 6.01711 10.3191 6.01711 10.262 5.96012L9.88392 5.58262C8.29117 3.99239 5.70882 3.99239 4.11607 5.58262L3.71113 5.98689C3.65407 6.04388 3.56154 6.04388 3.50445 5.98689L2.56451 5.04844C2.45033 4.93446 2.45033 4.74968 2.56451 4.63569L2.8661 4.3346ZM13.0778 6.27543L13.9144 7.11063C14.0285 7.22462 14.0285 7.40939 13.9144 7.52338L10.1423 11.2895C10.0281 11.4035 9.84305 11.4035 9.7289 11.2895L7.05169 8.61659C7.02315 8.58808 6.97688 8.58808 6.94833 8.61659L4.2712 11.2895C4.15705 11.4035 3.97195 11.4035 3.8578 11.2895L0.085616 7.52334C-0.0285386 7.40935 -0.0285386 7.22458 0.085616 7.11059L0.922174 6.27535C1.03633 6.1614 1.22141 6.1614 1.33557 6.27535L4.01282 8.94833C4.04133 8.97685 4.0876 8.97685 4.11614 8.94833L6.79324 6.27535C6.90739 6.1614 7.09249 6.1614 7.20664 6.27535L9.88388 8.94833C9.91243 8.97685 9.9587 8.97685 9.98724 8.94833L12.6644 6.27543C12.7786 6.16144 12.9637 6.16144 13.0778 6.27543Z" fill="#8B8E9C"/>
</svg>
